{"title":"HillarysAmerica(2016)[DVD 720p]-BOOTY","uid":16012593,"size":1498261420,"categoryP":"video","categoryS":"movies","magnet":"?xt=urn:btih:d5850044cb4379bfed130f676d0126f022b561cd&amp;dn=HillarysAmerica%282016%29%5BDVD+720p%5D-BOOTY&amp;tr=udp%3A%2F%2Ftracker.leechers-paradise.org%3A6969&amp;tr=udp%3A%2F%2Fzer0day.ch%3A1337&amp;tr=udp%3A%2F%2Fopen.demonii.com%3A1337&amp;tr=udp%3A%2F%2Ftracker.coppersurfer.tk%3A6969&amp;tr=udp%3A%2F%2Fexodus.desync.com%3A6969","seeders":36,"leechers":32,"uploader":"makintos13","files":2,"time":1476252963,"description":"Screens:\r\n \nhttps://imgmak.com/adc\r\n \nhttps://imgmak.com/adn\r\n \nhttps://imgmak.com/adr\r\n \nhttps://imgmak.com/adB\r\n \nhttps://imgmak.com/adI\r\n \nhttps://imgmak.com/adq\r\n \nhttps://imgmak.com/adt\r\n \nhttps://imgmak.com/ad2\r\n\r\nGeneral\r\nComplete name                            : HillarysAmerica(2016)[DVD 720p]-BOOTY/Hillarys America (2016).avi\r\nFormat                                   : AVI\r\nFormat/Info                              : Audio Video Interleave\r\nFormat profile                           : OpenDML\r\nFile size                                : 1.39 GiB\r\nDuration                                 : 1h 38mn\r\nOverall bit rate mode                    : Variable\r\nOverall bit rate                         : 2 017 Kbps\r\nMovie name                               : HILLARYS_AMERICA.Title41\r\nWriting application                      : Lavf56.9.100\r\nOriginal source form/Name                : HILLARYS_AMERICA\r\n\r\nVideo\r\nID                                       : 0\r\nFormat                                   : AVC\r\nFormat/Info                              : Advanced Video Codec\r\nFormat profile                           :   \r\nFormat settings, CABAC                   : Yes\r\nFormat settings, ReFrames                : 2 frames\r\nFormat settings, GOP                     : M=1, N=24\r\nCodec ID                                 : H264\r\nDuration                                 : 1h 38mn\r\nBit rate mode                            : Variable\r\nBit rate                                 : 1 557 Kbps\r\nMaximum bit rate                         : 2 314 Kbps\r\nWidth                                    : 720 pixels\r\nHeight                                   : 404 pixels\r\nDisplay aspect ratio                     : 16:9\r\nFrame rate                               : 23.976 fps\r\nColor space                              : YUV\r\nChroma subsampling                       : 4:2:0\r\nBit depth                                : 8 bits\r\nScan type                                : Progressive\r\nBits/(Pixel*Frame)                       : 0.223\r\nStream size                              : 1.07 GiB (77%)\r\n\r\nAudio\r\nID                                       : 1\r\nFormat                                   : AC-3\r\nFormat/Info                              : Audio Coding 3\r\nMode extension                           : CM (complete main)\r\nCodec ID                                 : 2000\r\nDuration                                 : 1h 38mn\r\nBit rate mode                            : Constant\r\nBit rate                                 : 448 Kbps\r\nChannel(s)                               : 6 channels\r\nChannel positions                        : Front: L C R, Side: L R, LFE\r\nSampling rate                            : 48.0 KHz\r\nBit depth                                : 16 bits\r\nCompression mode                         : Lossy\r\nStream size                              : 316 MiB (22%)\r\nAlignment                                : Aligned on interleaves\r\nInterleave, duration                     : 32 ms (0.77 video frame)","torrent":{"xt":"urn:btih:d5850044cb4379bfed130f676d0126f022b561cd","amp;dn":"HillarysAmerica%282016%29%5BDVD+720p%5D-BOOTY","amp;tr":["udp%3A%2F%2Ftracker.leechers-paradise.org%3A6969","udp%3A%2F%2Fzer0day.ch%3A1337","udp%3A%2F%2Fopen.demonii.com%3A1337","udp%3A%2F%2Ftracker.coppersurfer.tk%3A6969","udp%3A%2F%2Fexodus.desync.com%3A6969"],"infoHash":"d5850044cb4379bfed130f676d0126f022b561cd","infoHashBuffer":{"type":"Buffer","data":[213,133,0,68,203,67,121,191,237,19,15,103,109,1,38,240,34,181,97,205]},"announce":[],"urlList":[]}}